PathFileType	4	(X/Y/Z)	C:/Users/opensim2020/Desktop/walking_exp_matlab/subject01/subject01_trc/subject01_walking16_run_cyclic.trc	
DataRate	CameraRate	NumFrames	NumMarkers	Units	OrigDataRate	OrigDataStartFrame	OrigNumFrames	
100.00	100.00	8	63	mm	100.00	381	54	
Frame#	Time	LKNE			RELB			LTHI			RUPA			LTIB			RFRM			LTOE			LSHO			RWRA			RSHO			RWRB			STRN			RFIN			RBHD			CLAV			LHEE			LFHD			RASI			RFHD			LBHD			C7			LWRB			LWRA			LFRM			RTHI			RKNE			LELB			LFIN			LUPA			RTIB			RANK			RTOE			RHEE			T10			RBAK			LASI			LPSI			RPSI			LANK			*39			*40			*41			*42			*43			*44			*45			*46			*47			*48			*49			*50			*51			*52			*53			*54			*55			*56			*57			*58			*59			*60			*61			*62			
		X1	Y1	Z1	X2	Y2	Z2	X3	Y3	Z3	X4	Y4	Z4	X5	Y5	Z5	X6	Y6	Z6	X7	Y7	Z7	X8	Y8	Z8	X9	Y9	Z9	X10	Y10	Z10	X11	Y11	Z11	X12	Y12	Z12	X13	Y13	Z13	X14	Y14	Z14	X15	Y15	Z15	X16	Y16	Z16	X17	Y17	Z17	X18	Y18	Z18	X19	Y19	Z19	X20	Y20	Z20	X21	Y21	Z21	X22	Y22	Z22	X23	Y23	Z23	X24	Y24	Z24	X25	Y25	Z25	X26	Y26	Z26	X27	Y27	Z27	X28	Y28	Z28	X29	Y29	Z29	X30	Y30	Z30	X31	Y31	Z31	X32	Y32	Z32	X33	Y33	Z33	X34	Y34	Z34	X35	Y35	Z35	X36	Y36	Z36	X37	Y37	Z37	X38	Y38	Z38	X39	Y39	Z39	X40	Y40	Z40	X41	Y41	Z41	X42	Y42	Z42	X43	Y43	Z43	X44	Y44	Z44	X45	Y45	Z45	X46	Y46	Z46	X47	Y47	Z47	X48	Y48	Z48	X49	Y49	Z49	X50	Y50	Z50	X51	Y51	Z51	X52	Y52	Z52	X53	Y53	Z53	X54	Y54	Z54	X55	Y55	Z55	X56	Y56	Z56	X57	Y57	Z57	X58	Y58	Z58	X59	Y59	Z59	X60	Y60	Z60	X61	Y61	Z61	X62	Y62	Z62	X63	Y63	Z63	

19	0.180	-555.30170	-278.57559	425.49728	-135.65465	-448.56476	1104.82837	-579.64691	-309.89966	552.00452	-187.73732	-397.10693	1210.89124	-554.23804	-366.54239	260.22665	-133.17360	-408.79129	976.69940	-497.72757	-346.21909	30.16794	-621.84265	-254.88087	1299.50049	-195.32765	-323.66568	888.26959	-311.20340	-261.73251	1331.43921	-151.46771	-354.65051	865.06586	-449.23251	-190.68578	1123.28198	-164.50677	-292.97192	821.93311	-394.65247	-329.38037	1541.65161	-458.41379	-206.15802	1285.09412	-444.75848	-538.50165	60.22683	-526.11865	-241.44221	1601.92078	-324.17300	-318.91702	865.06512	-414.53967	-227.55684	1614.55579	-513.40814	-342.22119	1530.94946	-470.46274	-343.54068	1371.02051	-703.86908	-74.68606	897.42542	-665.74017	-69.38910	944.22083	-746.30475	-179.60178	946.93597	-258.21231	-261.47256	557.71594	-295.28867	-221.16373	410.90176	-770.07318	-293.27130	991.39551	-677.12042	1.41982	910.69128	-722.92957	-293.71469	1136.01599	-285.93628	-392.22672	395.36453	-323.78229	-596.31287	372.49167	-316.64987	-625.91333	231.03569	-375.91968	-641.97833	410.14380	-433.24850	-445.33115	1102.20313	-372.77435	-433.09158	1207.24353	-535.57574	-328.99689	881.03436	-465.73730	-505.31262	905.50787	-324.83212	-493.42349	891.30902	-496.72546	-482.50363	75.97324	-3102.10645	1973.05420	1024.00671	-3140.80957	2012.47644	1021.97583																									-437.84378	-250.68190	1642.21362																																							 
20	0.190	-554.61011	-254.82993	416.89069	-135.30815	-414.03259	1115.08691	-579.48578	-276.18924	548.17865	-190.29497	-357.16254	1215.30554	-553.73218	-353.86960	258.55798	-123.99827	-380.57318	984.77631	-497.59961	-347.23560	30.01617	-621.20630	-203.28238	1299.37476	-179.56911	-299.07678	888.91327	-312.43237	-217.82684	1330.41064	-134.23912	-330.81418	870.21240	-448.10577	-145.39973	1121.65186	-144.83156	-270.99924	823.49042	-396.62216	-282.46320	1540.96155	-457.66367	-159.31998	1283.90698	-445.06586	-537.71332	67.12135	-527.73224	-193.40540	1600.76941	-324.10608	-274.25995	866.62946	-415.77881	-180.21593	1613.35388	-515.49329	-294.40359	1530.17664	-473.00970	-297.51556	1369.82507	-685.56476	-1.23863	916.20209	-648.74561	-2.33443	964.10931	-734.04474	-108.62180	953.62103	-261.37964	-191.33041	571.60919	-301.11179	-138.31551	429.61655	-764.41992	-225.03230	987.75189	-654.90582	72.03652	937.10284	-720.99921	-234.29668	1133.42615	-288.75742	-307.26453	399.53571	-322.96756	-510.21201	354.01843	-311.77267	-520.64661	210.92632	-374.78674	-561.76746	385.04272	-437.31891	-399.51013	1101.87598	-376.38998	-388.09366	1207.02539	-538.88452	-283.50186	878.34546	-467.83221	-459.71570	905.76318	-328.85101	-449.60626	893.48920	-497.06000	-480.77673	80.41420	-3101.97754	1973.23145	1023.50372	-3140.70020	2012.58582	1021.93976																									-439.42871	-203.05060	1640.74756																																							 
21	0.200	-553.66833	-232.53699	409.17990	-134.64278	-380.41330	1126.65405	-579.29187	-242.68465	543.73138	-192.71429	-317.69012	1221.69604	-552.74884	-342.64917	257.41650	-116.32668	-351.65671	995.32257	-497.44858	-348.54913	29.92126	-620.24921	-152.14482	1301.29529	-166.30412	-272.55389	894.14941	-312.77649	-174.44450	1330.35522	-120.10081	-305.01358	879.45465	-446.37076	-98.91749	1121.61572	-128.12488	-247.11777	829.07593	-398.09448	-235.25261	1541.57532	-456.37991	-112.54695	1284.00781	-444.84488	-536.28625	76.30209	-528.78949	-145.01175	1600.52893	-324.06723	-228.41277	869.54047	-416.70154	-132.52304	1613.47986	-516.99347	-246.37897	1530.42749	-474.82388	-251.54410	1369.39795	-666.50531	68.18306	938.39423	-631.87982	60.90989	987.25818	-721.11633	-40.33646	963.28259	-266.14203	-124.46815	588.37445	-306.92480	-58.83489	452.25070	-757.60040	-157.49396	986.84918	-633.36035	137.50681	967.05853	-718.82190	-175.37755	1133.31604	-291.81052	-224.35294	406.00925	-322.40753	-422.46680	333.71454	-310.05099	-413.09760	191.14577	-373.46378	-478.93643	357.40170	-441.36362	-353.06082	1101.71338	-380.64456	-342.58325	1206.92432	-541.50079	-238.18710	875.77026	-471.26538	-413.47720	905.55310	-332.89948	-404.36017	895.41748	-496.99371	-479.04587	85.98171	-3101.87109	1973.26172	1023.34747	-3140.70728	2012.59216	1022.11462																									-440.35385	-153.98807	1640.96545																																							 
22	0.210	-552.64740	-212.36476	402.89215	-134.18253	-346.85461	1139.03052	-578.94513	-210.96245	539.93768	-194.79201	-278.99155	1229.75903	-551.93811	-333.08798	257.78055	-110.33252	-321.85211	1007.76581	-497.28253	-349.21381	29.85581	-619.21338	-101.41936	1304.96460	-154.51175	-243.74591	903.22656	-312.53842	-131.32141	1331.49365	-109.31534	-277.92566	891.08136	-444.38519	-52.06541	1123.32483	-113.46123	-221.28088	837.90234	-399.03140	-187.85019	1543.50061	-454.50665	-65.83572	1285.77185	-445.18808	-533.08807	87.37222	-529.41364	-96.42002	1601.46826	-324.88712	-182.67123	873.61737	-417.26730	-84.56252	1614.75806	-518.03363	-198.29485	1531.92163	-476.30460	-205.09560	1369.90674	-647.49762	132.97044	962.91736	-616.07813	119.85751	1012.41229	-707.77649	25.36868	975.41205	-271.35779	-60.66087	607.85950	-312.11618	16.62177	477.32974	-750.49225	-91.57389	988.59198	-613.01306	197.94553	999.10052	-716.57513	-116.92933	1135.20593	-294.75940	-143.46982	413.49289	-322.22430	-331.97244	312.90881	-310.13721	-302.53638	173.37486	-372.04361	-392.19415	328.85120	-445.36383	-305.68515	1102.11182	-385.26157	-296.78824	1207.22339	-544.15302	-189.23035	874.15417	-475.53244	-366.50787	905.37891	-336.95569	-358.56955	897.23608	-497.29272	-476.18719	93.27776	-3101.90527	1973.14343	1023.51276	-3140.63696	2012.60693	1022.06433																									-441.39420	-105.05882	1642.56909																																							 
23	0.220	-552.83783	-194.05511	400.00385	-134.16382	-312.54889	1151.99207	-578.53473	-180.92397	537.00299	-196.28954	-241.10194	1239.10803	-551.81897	-323.07819	260.98352	-106.21553	-290.57147	1021.42548	-497.26154	-349.49716	29.91587	-618.06995	-50.96235	1309.81067	-144.43753	-212.77675	914.79144	-311.32642	-88.65573	1334.24817	-101.00966	-249.58264	904.31061	-442.01511	-4.70230	1126.57312	-101.56712	-193.48997	848.94525	-399.41684	-140.19786	1546.65723	-452.07550	-18.99729	1288.71790	-446.23422	-527.30225	101.04610	-529.47382	-47.75475	1603.47168	-325.87387	-135.88776	878.93793	-417.32101	-36.22905	1617.10461	-518.39172	-150.12558	1534.79443	-477.42755	-158.32205	1371.61816	-629.08209	193.23984	988.49146	-600.46246	174.70734	1037.77002	-694.30750	88.23421	989.49341	-276.75735	0.04512	627.97449	-316.62708	87.26857	503.01993	-743.18622	-26.70808	992.19128	-593.99152	253.47023	1031.67468	-714.26819	-58.38332	1139.06274	-297.94470	-65.21369	419.54828	-322.73630	-238.68748	292.34402	-312.22043	-189.73967	158.43924	-372.01404	-301.35391	300.17145	-449.37701	-257.75800	1103.21509	-389.98511	-250.25690	1207.91650	-545.37592	-140.36020	873.66473	-480.10461	-318.43451	905.59760	-340.85532	-311.78314	899.32550	-498.06729	-470.89374	102.23421	-3101.97607	1973.11646	1023.42670	-3140.53271	2012.57568	1022.19696																									-442.07053	-56.37943	1645.03455																																							 
24	0.230	-554.04437	-176.51591	400.45071	-135.04671	-276.80865	1165.30750	-577.97290	-152.34367	535.45490	-197.81247	-203.16891	1249.39734	-552.80255	-309.77020	268.55176	-103.64114	-257.32651	1036.10327	-497.04868	-349.71594	29.88026	-616.56476	-0.41570	1315.56775	-135.92317	-180.00819	927.99042	-310.29770	-45.83802	1338.28296	-94.82832	-219.42688	918.85571	-438.99600	43.22149	1130.96069	-91.81152	-163.30325	861.67883	-399.21143	-92.31950	1550.94336	-449.28046	27.85457	1292.68628	-448.14609	-518.74554	117.68986	-529.37939	0.90859	1606.49756	-327.20364	-87.42125	885.65167	-417.01212	12.38996	1620.39929	-518.17834	-101.92578	1538.80383	-478.49677	-111.46119	1374.19958	-611.60199	249.34618	1014.22021	-586.20441	225.96368	1062.97217	-681.30103	148.17230	1004.64752	-281.94412	57.74038	646.95483	-319.66364	153.21867	527.90057	-735.85339	36.61847	997.51440	-576.77557	304.45807	1063.45117	-711.29541	0.37246	1144.50977	-300.78436	11.20612	423.83762	-324.18152	-142.65669	272.79123	-316.37625	-75.70626	146.56934	-372.58615	-206.61743	273.07010	-453.66980	-209.61536	1105.17004	-394.45709	-203.28383	1209.34363	-546.46521	-89.97653	874.19598	-484.51154	-268.86481	906.67499	-344.52829	-263.56332	902.29315	-499.71567	-463.07309	114.06350	-3101.99756	1973.07202	1023.55334	-3140.84033	2012.59180	1022.11926																									-442.15494	-7.69692	1648.43689																																							 
25	0.240	-555.66003	-156.55531	405.56888	-136.96111	-239.44902	1178.72375	-578.37427	-122.19477	537.92230	-199.99306	-164.26314	1260.45715	-555.14044	-294.09488	279.75616	-102.74781	-222.47543	1051.09985	-497.21548	-348.99487	30.11904	-614.46613	50.09739	1321.95129	-129.81375	-145.04649	941.68811	-309.39813	-2.82737	1343.58154	-90.31560	-186.86313	934.07532	-435.44400	91.39123	1136.13525	-84.05271	-130.34172	875.47797	-398.49677	-44.18454	1556.17468	-446.09036	74.69193	1297.33594	-450.73199	-505.55765	136.20206	-528.64575	49.71545	1610.17627	-330.30423	-39.13285	892.44525	-416.51657	61.25655	1624.27466	-517.41272	-53.95041	1543.78760	-479.38602	-64.37843	1377.49536	-595.00073	301.57425	1039.19666	-573.16528	274.22012	1086.89429	-669.17657	205.29791	1020.15100	-286.63852	113.38103	664.49414	-321.40753	214.86928	550.14673	-728.89282	97.86650	1004.33575	-561.01282	351.54407	1093.22498	-708.05493	59.00892	1151.22668	-303.16031	87.02999	425.96442	-326.63638	-44.41079	255.00571	-322.49985	38.76314	138.14090	-374.18378	-108.94028	247.55482	-458.42731	-160.09659	1107.46313	-398.38269	-155.99844	1211.65515	-546.88580	-39.03346	875.47241	-488.50583	-218.23920	908.74164	-347.69791	-213.77124	905.85663	-501.84967	-452.58267	128.92548	-3101.96045	1973.21558	1023.48438	-3140.72729	2012.60254	1022.09637																									-441.74625	41.24525	1652.38635																																							 
26	0.250	-558.14642	-132.75905	414.92267	-140.03368	-200.72404	1191.78687	-579.87714	-87.63916	544.46820	-203.07404	-123.96403	1271.89075	-558.59039	-275.89166	292.43729	-103.16404	-186.17058	1065.88953	-497.24316	-347.88071	30.29891	-611.74634	100.56783	1328.61206	-126.07403	-108.57203	955.41705	-308.94888	40.41793	1349.34717	-87.37839	-151.48828	949.13336	-431.49704	139.61957	1141.89990	-78.41824	-94.34376	889.06982	-397.47449	4.10956	1562.00110	-442.73813	121.36987	1302.60071	-454.40207	-486.90567	156.18007	-527.93433	98.55612	1614.14758	-332.56650	12.18022	899.18286	-415.89679	110.32691	1628.53088	-516.38489	-5.94618	1549.33801	-480.12259	-17.20553	1381.26526	-580.70990	350.90375	1062.32422	-561.62543	319.49875	1109.11365	-658.13269	259.70114	1035.31018	-289.96561	167.96483	679.89386	-322.48700	272.33133	567.83875	-722.85278	156.82707	1012.10193	-546.69501	395.30618	1120.39099	-704.46808	117.42339	1158.71716	-304.69476	162.40326	426.28488	-329.91370	54.26178	239.19952	-330.83377	152.08594	132.92065	-376.78180	-9.56125	223.94865	-463.59375	-110.23447	1109.87915	-401.80588	-108.44183	1214.65588	-546.76691	12.96962	877.79236	-492.43005	-166.97430	911.46875	-350.49899	-163.34064	910.27795	-504.96722	-437.81937	144.59401	-3102.12915	1973.07166	1024.02515	-3140.87695	2012.46497	1022.12488																									-441.06940	90.70444	1656.76648																																							 
